<?xml version="1.0" encoding="UTF-8"?>
<svg class="gsndiagram" viewBox="0 0 1132 1192" xmlns="http://www.w3.org/2000/svg">
<symbol id="module_icon">
<rect fill="lightgrey" height="5" stroke="black" stroke-width="1" width="10" x="0" y="0"/>
<rect fill="lightgrey" height="10" stroke="black" stroke-width="1" width="20" x="0" y="5"/>
</symbol>
<symbol id="acp">
<rect fill="black" height="10" stroke="black" stroke-width="1" width="10" x="0" y="0"/>
</symbol>
<marker id="composite_arrow" markerHeight="9" markerUnits="userSpaceOnUse" markerWidth="10" orient="auto-start-reverse" refX="0" refY="4.5">
<polyline fill-opacity="0" points="0 0, 6 4.5, 0 9" stroke="black" stroke-width="1"/>
<polyline fill-opacity="0" points="4 0, 10 4.5, 4 9" stroke="black" stroke-width="1"/>
<polyline fill-opacity="0" points="0 4.5, 10 4.5" stroke="black" stroke-width="1"/>
</marker>
<marker id="supportedby_arrow" markerHeight="9" markerUnits="userSpaceOnUse" markerWidth="10" orient="auto-start-reverse" refX="0" refY="4.5">
<polyline fill="black" points="0 0, 10 4.5, 0 9"/>
</marker>
<marker id="incontextof_arrow" markerHeight="9" markerUnits="userSpaceOnUse" markerWidth="10" orient="auto-start-reverse" refX="0" refY="4.5">
<polyline fill-opacity="0" points="0 0, 10 4.5, 0 9, 0 0" stroke="black" stroke-width="1"/>
</marker>
<style type="text/css">
.notVerified path { fill: red; fill-opacity: 1;}
/* .notVerified text,a { fill: white; } */
</style>
<a href="claim-H2.svg#node_g00006">
<g class="gsn_module_claim_h2 gsnelem gsnawaygoal" id="node_g00006">
<title>G00006</title>
<path class="border" d="M104,86 V20 H518 V86" fill-opacity="0" stroke="black" stroke-width="1"/>
<text font-family="Arial" font-size="12" font-weight="bold" x="111" y="39">G00006</text>
<text font-family="Arial" font-size="12" x="111" y="58">Adversary cannot cause 'Clear MA provided with wrong zone.' (UCA6) </text>
<text font-family="Arial" font-size="12" x="111" y="72"> or likelihood is acceptable</text>
<a href="claim-H2.svg#node_g00006">
<path class="border" d="M104,86 h414 v28 h-414 z" fill-opacity="0" stroke="black" stroke-width="1"/>
<text font-family="Arial" font-size="12" font-weight="bold" x="138" y="107">claim-H2</text>
</a>
<use href="#module_icon" x="111" y="93"/>
</g>
</a>
<g class="gsn_module_claim_uca6 gsnelem gsngoal" id="node_g00012">
<title>G00012</title>
<path class="border" d="M113,154 L509,154 L509,228 L113,228 z" fill-opacity="0" stroke="black" stroke-width="1"/>
<text font-family="Arial" font-size="12" font-weight="bold" x="120" y="173">G00012</text>
<text font-family="Arial" font-size="12" x="120" y="192">Unsafe Control Action Clear MA provided with wrong zone. (UCA6) </text>
<text font-family="Arial" font-size="12" x="120" y="206"> cannot be caused by an attack</text>
<text font-family="Arial" font-size="12" x="120" y="220"> or the likelihood is acceptable</text>
</g>
<g class="gsn_module_claim_uca6 gsnelem gsnctxt" id="node_c00000">
<title>C00000</title>
<path class="border" d="M30,332 L194,332 C204,332,204,378,194,378 L30,378 C20,378,20,332,30,332" fill-opacity="0" stroke="black" stroke-width="1"/>
<text font-family="Arial" font-size="12" font-weight="bold" x="37" y="351">C00000</text>
<text font-family="Arial" font-size="12" x="37" y="370">Under current threat model</text>
</g>
<g class="gsn_module_claim_uca6 gsnelem gsnstgy" id="node_s00006">
<title>S00006</title>
<path class="border" d="M251,332 L385,332 L371,378 L237,378 z" fill-opacity="0" stroke="black" stroke-width="1"/>
<text font-family="Arial" font-size="12" font-weight="bold" x="259" y="351">S00006</text>
<text font-family="Arial" font-size="12" x="255" y="370">Substitution</text>
</g>
<g class="gsn_module_claim_uca6 gsnelem gsnasmp" id="node_a00003">
<title>A00003</title>
<path class="border" d="M490,301 a144,33,0,1,0,289,0 a144,33,0,1,0,-289,0 z" fill-opacity="0" stroke="black" stroke-width="1"/>
<text font-family="Arial" font-size="12" font-weight="bold" x="538" y="292">A00003</text>
<text font-family="Arial" font-size="12" x="538" y="311">Model of CPS behaviour is correct</text>
<text font-family="Arial" font-size="12" font-weight="bold" x="773" y="329">A</text>
</g>
<g class="gsn_module_claim_uca6 gsnelem gsnjust" id="node_j00003">
<title>J00003</title>
<path class="border" d="M418,408 a216,33,0,1,0,432,0 a216,33,0,1,0,-432,0 z" fill-opacity="0" stroke="black" stroke-width="1"/>
<text font-family="Arial" font-size="12" font-weight="bold" x="487" y="399">J00003</text>
<text font-family="Arial" font-size="12" x="487" y="418">Scenarios automatically found using model-checking</text>
<text font-family="Arial" font-size="12" font-weight="bold" x="845" y="436">J</text>
</g>
<g class="gsn_module_claim_uca6 gsnelem gsngoal" id="node_g00013">
<title>G00013</title>
<path class="border" d="M173,482 L449,482 L449,542 L173,542 z" fill-opacity="0" stroke="black" stroke-width="1"/>
<text font-family="Arial" font-size="12" font-weight="bold" x="180" y="501">G00013</text>
<text font-family="Arial" font-size="12" x="180" y="520">All potential threat scenarios leading to UCA6 </text>
<text font-family="Arial" font-size="12" x="180" y="534"> have been identified and are mitigated</text>
</g>
<g class="gsn_module_claim_uca6 gsnelem gsnstgy" id="node_s00007">
<title>S00007</title>
<path class="border" d="M251,592 L385,592 L371,638 L237,638 z" fill-opacity="0" stroke="black" stroke-width="1"/>
<text font-family="Arial" font-size="12" font-weight="bold" x="259" y="611">S00007</text>
<text font-family="Arial" font-size="12" x="255" y="630">Decomposition</text>
</g>
<g class="gsn_module_claim_uca6 gsnelem gsnjust" id="node_j00004">
<title>J00004</title>
<path class="border" d="M418,615 a238,33,0,1,0,476,0 a238,33,0,1,0,-476,0 z" fill-opacity="0" stroke="black" stroke-width="1"/>
<text font-family="Arial" font-size="12" font-weight="bold" x="494" y="606">J00004</text>
<text font-family="Arial" font-size="12" x="494" y="625">Each TS is a different way the adversary can cause UCA6</text>
<text font-family="Arial" font-size="12" font-weight="bold" x="889" y="643">J</text>
</g>
<g class="gsn_module_claim_uca6 gsnelem gsngoal" id="node_g00014">
<title>G00014</title>
<path class="border" d="M255,688 L367,688 L367,734 L255,734 z" fill-opacity="0" stroke="black" stroke-width="1"/>
<text font-family="Arial" font-size="12" font-weight="bold" x="262" y="707">G00014</text>
<text font-family="Arial" font-size="12" x="262" y="726">TS-10 is mitigated</text>
</g>
<g class="gsn_module_claim_uca6 gsnelem gsnstgy" id="node_s00008">
<title>S00008</title>
<path class="border" d="M251,774 L385,774 L371,820 L237,820 z" fill-opacity="0" stroke="black" stroke-width="1"/>
<text font-family="Arial" font-size="12" font-weight="bold" x="259" y="793">S00008</text>
<text font-family="Arial" font-size="12" x="255" y="812">Substitution</text>
</g>
<g class="gsn_module_claim_uca6 gsnelem gsngoal" id="node_g00015">
<title>G00015</title>
<path class="border" d="M116,860 L506,860 L506,948 L116,948 z" fill-opacity="0" stroke="black" stroke-width="1"/>
<text font-family="Arial" font-size="12" font-weight="bold" x="123" y="879">G00015</text>
<text font-family="Arial" font-size="12" x="123" y="898">Threat scenario is exploitable within </text>
<text font-family="Arial" font-size="12" x="123" y="912"> acceptable risk (Computed likelihood = 4.329021542399996e-05) </text>
<text font-family="Arial" font-size="12" x="123" y="926"> under the current system configuration </text>
<text font-family="Arial" font-size="12" x="123" y="940"> as per attack path analysis</text>
</g>
<a href="claim-TS-10.svg#node_g00042">
<g class="gsn_module_claim_ts_10 gsnelem gsnawaygoal" id="node_g00042">
<title>G00042</title>
<path class="border" d="M113,1054 V988 H509 V1054" fill-opacity="0" stroke="black" stroke-width="1"/>
<text font-family="Arial" font-size="12" font-weight="bold" x="120" y="1007">G00042</text>
<text font-family="Arial" font-size="12" x="120" y="1026">Risk of adversary being in the position of causing TS is acceptable </text>
<text font-family="Arial" font-size="12" x="120" y="1040"> under the current system configuration</text>
<a href="claim-TS-10.svg#node_g00042">
<path class="border" d="M113,1054 h397 v28 h-397 z" fill-opacity="0" stroke="black" stroke-width="1"/>
<text font-family="Arial" font-size="12" font-weight="bold" x="147" y="1075">claim-TS-10</text>
</a>
<use href="#module_icon" x="120" y="1061"/>
</g>
</a>
<path class="gsnedge gsninspby" d="M311,114 C311,144,311,124,311,144" fill-opacity="0" marker-end="url(#supportedby_arrow)" stroke="black" stroke-width="1"/>
<path class="gsnedge gsninspby" d="M311,228 C311,258,311,302,311,322" fill-opacity="0" marker-end="url(#supportedby_arrow)" stroke="black" stroke-width="1"/>
<path class="gsnedge gsninspby" d="M311,542 C311,572,311,562,311,582" fill-opacity="0" marker-end="url(#supportedby_arrow)" stroke="black" stroke-width="1"/>
<path class="gsnedge gsninspby" d="M311,734 C311,764,311,744,311,764" fill-opacity="0" marker-end="url(#supportedby_arrow)" stroke="black" stroke-width="1"/>
<path class="gsnedge gsninspby" d="M311,948 C311,978,311,958,311,978" fill-opacity="0" marker-end="url(#supportedby_arrow)" stroke="black" stroke-width="1"/>
<path class="gsnedge gsninctxt" d="M378,355 C408,355,460,301,480,301" fill-opacity="0" marker-end="url(#incontextof_arrow)" stroke="black" stroke-width="1"/>
<path class="gsnedge gsninctxt" d="M244,355 C214,355,234,355,214,355" fill-opacity="0" marker-end="url(#incontextof_arrow)" stroke="black" stroke-width="1"/>
<path class="gsnedge gsninctxt" d="M378,355 C408,355,388,408,408,408" fill-opacity="0" marker-end="url(#incontextof_arrow)" stroke="black" stroke-width="1"/>
<path class="gsnedge gsninspby" d="M311,378 C311,408,311,452,311,472" fill-opacity="0" marker-end="url(#supportedby_arrow)" stroke="black" stroke-width="1"/>
<path class="gsnedge gsninctxt" d="M378,615 C408,615,388,615,408,615" fill-opacity="0" marker-end="url(#incontextof_arrow)" stroke="black" stroke-width="1"/>
<path class="gsnedge gsninspby" d="M311,638 C311,668,311,658,311,678" fill-opacity="0" marker-end="url(#supportedby_arrow)" stroke="black" stroke-width="1"/>
<path class="gsnedge gsninspby" d="M311,820 C311,850,311,830,311,850" fill-opacity="0" marker-end="url(#supportedby_arrow)" stroke="black" stroke-width="1"/>
<g class="gsnmodule" id="node_gsn_module">
<title>Module Information</title>
<text font-family="Arial" font-size="12" x="686" y="1144">Module: claim-UCA6</text>
<text font-family="Arial" font-size="12" x="686" y="1158">Assurance Case Fragment for Clear MA provided with wrong zone. (UCA6).</text>
<text font-family="Arial" font-size="12" x="686" y="1172">Generated on: 2024-10-31T13:04:20.875275000Z</text>
</g>
</svg>