<?xml version="1.0" encoding="UTF-8"?>
<svg class="gsndiagram" viewBox="0 0 1475 1061" xmlns="http://www.w3.org/2000/svg">
<symbol id="module_icon">
<rect fill="lightgrey" height="5" stroke="black" stroke-width="1" width="10" x="0" y="0"/>
<rect fill="lightgrey" height="10" stroke="black" stroke-width="1" width="20" x="0" y="5"/>
</symbol>
<symbol id="acp">
<rect fill="black" height="10" stroke="black" stroke-width="1" width="10" x="0" y="0"/>
</symbol>
<marker id="composite_arrow" markerHeight="9" markerUnits="userSpaceOnUse" markerWidth="10" orient="auto-start-reverse" refX="0" refY="4.5">
<polyline fill-opacity="0" points="0 0, 6 4.5, 0 9" stroke="black" stroke-width="1"/>
<polyline fill-opacity="0" points="4 0, 10 4.5, 4 9" stroke="black" stroke-width="1"/>
<polyline fill-opacity="0" points="0 4.5, 10 4.5" stroke="black" stroke-width="1"/>
</marker>
<marker id="supportedby_arrow" markerHeight="9" markerUnits="userSpaceOnUse" markerWidth="10" orient="auto-start-reverse" refX="0" refY="4.5">
<polyline fill="black" points="0 0, 10 4.5, 0 9"/>
</marker>
<marker id="incontextof_arrow" markerHeight="9" markerUnits="userSpaceOnUse" markerWidth="10" orient="auto-start-reverse" refX="0" refY="4.5">
<polyline fill-opacity="0" points="0 0, 10 4.5, 0 9, 0 0" stroke="black" stroke-width="1"/>
</marker>
<style type="text/css">
.notVerified path { fill: red; fill-opacity: 1;}
/* .notVerified text,a { fill: white; } */
</style>
<a href="claim-UCA4.svg#node_g00025">
<g class="gsn_module_claim_uca4 gsnelem gsnawaygoal" id="node_g00025">
<title>G00025</title>
<path class="border" d="M238,100 V20 H456 V100" fill-opacity="0" stroke="black" stroke-width="1"/>
<text font-family="Arial" font-size="12" font-weight="bold" x="245" y="39">G00025</text>
<text font-family="Arial" font-size="12" x="245" y="58">Scenario TS-8 is not exploitable </text>
<text font-family="Arial" font-size="12" x="245" y="72"> in the current system configuration </text>
<text font-family="Arial" font-size="12" x="245" y="86"> as per attack path analysis</text>
<a href="claim-UCA4.svg#node_g00025">
<path class="border" d="M238,100 h218 v28 h-218 z" fill-opacity="0" stroke="black" stroke-width="1"/>
<text font-family="Arial" font-size="12" font-weight="bold" x="272" y="121">claim-UCA4</text>
</a>
<use href="#module_icon" x="245" y="107"/>
</g>
</a>
<g class="gsn_module_claim_ts_8 gsnelem gsngoal" id="node_g00050">
<title>G00050</title>
<path class="border" d="M139,168 L555,168 L555,214 L139,214 z" fill-opacity="0" stroke="black" stroke-width="1"/>
<text font-family="Arial" font-size="12" font-weight="bold" x="146" y="187">G00050</text>
<text font-family="Arial" font-size="12" x="146" y="206">Scenario TS-8 is not exploitable under the current system configuration</text>
</g>
<g class="gsn_module_claim_ts_8 gsnelem gsnstgy" id="node_s00032">
<title>S00032</title>
<path class="border" d="M287,264 L421,264 L407,310 L273,310 z" fill-opacity="0" stroke="black" stroke-width="1"/>
<text font-family="Arial" font-size="12" font-weight="bold" x="295" y="283">S00032</text>
<text font-family="Arial" font-size="12" x="291" y="302">Substitution</text>
</g>
<g class="gsn_module_claim_ts_8 gsnelem gsnjust" id="node_j00013">
<title>J00013</title>
<path class="border" d="M454,287 a340,33,0,1,0,681,0 a340,33,0,1,0,-681,0 z" fill-opacity="0" stroke="black" stroke-width="1"/>
<text font-family="Arial" font-size="12" font-weight="bold" x="558" y="278">J00013</text>
<text font-family="Arial" font-size="12" x="558" y="297">At least one attack step not exploitable is sufficient to prevent exploitability of TS-8</text>
<text font-family="Arial" font-size="12" font-weight="bold" x="1129" y="315">J</text>
</g>
<g class="gsn_module_claim_ts_8 gsnelem gsngoal" id="node_g00051">
<title>G00051</title>
<path class="border" d="M202,360 L492,360 L492,406 L202,406 z" fill-opacity="0" stroke="black" stroke-width="1"/>
<text font-family="Arial" font-size="12" font-weight="bold" x="209" y="379">G00051</text>
<text font-family="Arial" font-size="12" x="209" y="398">At least one attack step in TS-8 is not exploitable</text>
</g>
<g class="gsn_module_claim_ts_8 gsnelem gsnctxt" id="node_c00009">
<title>C00009</title>
<path class="border" d="M30,519 L228,519 C238,519,238,565,228,565 L30,565 C20,565,20,519,30,519" fill-opacity="0" stroke="black" stroke-width="1"/>
<text font-family="Arial" font-size="12" font-weight="bold" x="37" y="538">C00009</text>
<text font-family="Arial" font-size="12" x="37" y="557">Security assessment carried out.</text>
</g>
<g class="gsn_module_claim_ts_8 gsnelem gsnstgy" id="node_s00033">
<title>S00033</title>
<path class="border" d="M285,519 L423,519 L409,565 L271,565 z" fill-opacity="0" stroke="black" stroke-width="1"/>
<text font-family="Arial" font-size="12" font-weight="bold" x="292" y="538">S00033</text>
<text font-family="Arial" font-size="12" x="288" y="557">Evidence Incorporation</text>
</g>
<g class="gsn_module_claim_ts_8 gsnelem gsnasmp" id="node_a00015">
<title>A00015</title>
<path class="border" d="M552,489 a123,43,0,1,0,247,0 a123,43,0,1,0,-247,0 z" fill-opacity="0" stroke="black" stroke-width="1"/>
<text font-family="Arial" font-size="12" font-weight="bold" x="594" y="473">A00015</text>
<text font-family="Arial" font-size="12" x="594" y="492">Computer network is known. </text>
<text font-family="Arial" font-size="12" x="594" y="506"> No 0-days vulnerabilities.</text>
<text font-family="Arial" font-size="12" font-weight="bold" x="793" y="527">A</text>
</g>
<g class="gsn_module_claim_ts_8 gsnelem gsnjust" id="node_j00014">
<title>J00014</title>
<path class="border" d="M456,605 a219,33,0,1,0,438,0 a219,33,0,1,0,-438,0 z" fill-opacity="0" stroke="black" stroke-width="1"/>
<text font-family="Arial" font-size="12" font-weight="bold" x="526" y="596">J00014</text>
<text font-family="Arial" font-size="12" x="526" y="615">At least one attack step not exploitable to prevent TS</text>
<text font-family="Arial" font-size="12" font-weight="bold" x="889" y="633">J</text>
</g>
<g class="gsn_module_claim_ts_8 gsnelem gsnsltn" id="node_sn00006">
<title>Sn00006</title>
<path class="border" d="M209,816 a138,138,0,1,0,276,0 a138,138,0,1,0,-276,0 z" fill-opacity="0" stroke="black" stroke-width="1"/>
<text font-family="Arial" font-size="12" font-weight="bold" x="225" y="800">Sn00006</text>
<text font-family="Arial" font-size="12" x="225" y="819">Disrupt (RTK 2 Loc) Not exploitable on AG </text>
<text font-family="Arial" font-size="12" x="225" y="833">(/path/to/ag). </text>
</g>
<path class="gsnedge gsninspby" d="M347,128 C347,158,347,138,347,158" fill-opacity="0" marker-end="url(#supportedby_arrow)" stroke="black" stroke-width="1"/>
<path class="gsnedge gsninspby" d="M347,214 C347,244,347,234,347,254" fill-opacity="0" marker-end="url(#supportedby_arrow)" stroke="black" stroke-width="1"/>
<path class="gsnedge gsninspby" d="M347,406 C347,436,347,489,347,509" fill-opacity="0" marker-end="url(#supportedby_arrow)" stroke="black" stroke-width="1"/>
<path class="gsnedge gsninctxt" d="M414,287 C444,287,424,287,444,287" fill-opacity="0" marker-end="url(#incontextof_arrow)" stroke="black" stroke-width="1"/>
<path class="gsnedge gsninspby" d="M347,310 C347,340,347,330,347,350" fill-opacity="0" marker-end="url(#supportedby_arrow)" stroke="black" stroke-width="1"/>
<path class="gsnedge gsninctxt" d="M416,542 C446,542,522,489,542,489" fill-opacity="0" marker-end="url(#incontextof_arrow)" stroke="black" stroke-width="1"/>
<path class="gsnedge gsninctxt" d="M278,542 C248,542,268,542,248,542" fill-opacity="0" marker-end="url(#incontextof_arrow)" stroke="black" stroke-width="1"/>
<path class="gsnedge gsninctxt" d="M347,565 C347,595,675,542,675,562" fill-opacity="0" marker-end="url(#incontextof_arrow)" stroke="black" stroke-width="1"/>
<path class="gsnedge gsninspby" d="M347,565 C347,595,347,648,347,668" fill-opacity="0" marker-end="url(#supportedby_arrow)" stroke="black" stroke-width="1"/>
<g class="gsnmodule" id="node_gsn_module">
<title>Module Information</title>
<text font-family="Arial" font-size="12" x="1180" y="1013">Module: claim-TS-8</text>
<text font-family="Arial" font-size="12" x="1180" y="1027">Assurance Case Fragment for TS-8.</text>
<text font-family="Arial" font-size="12" x="1180" y="1041">Generated on: 2024-10-31T13:04:20.759735000Z</text>
</g>
</svg>