<?xml version="1.0" encoding="UTF-8"?>
<svg class="gsndiagram" viewBox="0 0 1943 1192" xmlns="http://www.w3.org/2000/svg">
<symbol id="module_icon">
<rect fill="lightgrey" height="5" stroke="black" stroke-width="1" width="10" x="0" y="0"/>
<rect fill="lightgrey" height="10" stroke="black" stroke-width="1" width="20" x="0" y="5"/>
</symbol>
<symbol id="acp">
<rect fill="black" height="10" stroke="black" stroke-width="1" width="10" x="0" y="0"/>
</symbol>
<marker id="composite_arrow" markerHeight="9" markerUnits="userSpaceOnUse" markerWidth="10" orient="auto-start-reverse" refX="0" refY="4.5">
<polyline fill-opacity="0" points="0 0, 6 4.5, 0 9" stroke="black" stroke-width="1"/>
<polyline fill-opacity="0" points="4 0, 10 4.5, 4 9" stroke="black" stroke-width="1"/>
<polyline fill-opacity="0" points="0 4.5, 10 4.5" stroke="black" stroke-width="1"/>
</marker>
<marker id="supportedby_arrow" markerHeight="9" markerUnits="userSpaceOnUse" markerWidth="10" orient="auto-start-reverse" refX="0" refY="4.5">
<polyline fill="black" points="0 0, 10 4.5, 0 9"/>
</marker>
<marker id="incontextof_arrow" markerHeight="9" markerUnits="userSpaceOnUse" markerWidth="10" orient="auto-start-reverse" refX="0" refY="4.5">
<polyline fill-opacity="0" points="0 0, 10 4.5, 0 9, 0 0" stroke="black" stroke-width="1"/>
</marker>
<style type="text/css">
.notVerified path { fill: red; fill-opacity: 1;}
/* .notVerified text,a { fill: white; } */
</style>
<a href="claim-H1.svg#node_g00010">
<g class="gsn_module_claim_h1 gsnelem gsnawaygoal" id="node_g00010">
<title>G00010</title>
<path class="border" d="M667,86 V20 H1097 V86" fill-opacity="0" stroke="black" stroke-width="1"/>
<text font-family="Arial" font-size="12" font-weight="bold" x="674" y="39">G00010</text>
<text font-family="Arial" font-size="12" x="674" y="58">Adversary cannot cause 'Request MA provided with wrong zone.' (UCA4) </text>
<text font-family="Arial" font-size="12" x="674" y="72"> or likelihood is acceptable</text>
<a href="claim-H1.svg#node_g00010">
<path class="border" d="M667,86 h430 v28 h-430 z" fill-opacity="0" stroke="black" stroke-width="1"/>
<text font-family="Arial" font-size="12" font-weight="bold" x="701" y="107">claim-H1</text>
</a>
<use href="#module_icon" x="674" y="93"/>
</g>
</a>
<g class="gsn_module_claim_uca4 gsnelem gsngoal" id="node_g00018">
<title>G00018</title>
<path class="border" d="M676,154 L1088,154 L1088,228 L676,228 z" fill-opacity="0" stroke="black" stroke-width="1"/>
<text font-family="Arial" font-size="12" font-weight="bold" x="683" y="173">G00018</text>
<text font-family="Arial" font-size="12" x="683" y="192">Unsafe Control Action Request MA provided with wrong zone. (UCA4) </text>
<text font-family="Arial" font-size="12" x="683" y="206"> cannot be caused by an attack</text>
<text font-family="Arial" font-size="12" x="683" y="220"> or the likelihood is acceptable</text>
</g>
<g class="gsn_module_claim_uca4 gsnelem gsnctxt" id="node_c00002">
<title>C00002</title>
<path class="border" d="M601,332 L765,332 C775,332,775,378,765,378 L601,378 C591,378,591,332,601,332" fill-opacity="0" stroke="black" stroke-width="1"/>
<text font-family="Arial" font-size="12" font-weight="bold" x="608" y="351">C00002</text>
<text font-family="Arial" font-size="12" x="608" y="370">Under current threat model</text>
</g>
<g class="gsn_module_claim_uca4 gsnelem gsnstgy" id="node_s00010">
<title>S00010</title>
<path class="border" d="M822,332 L956,332 L942,378 L808,378 z" fill-opacity="0" stroke="black" stroke-width="1"/>
<text font-family="Arial" font-size="12" font-weight="bold" x="830" y="351">S00010</text>
<text font-family="Arial" font-size="12" x="826" y="370">Substitution</text>
</g>
<g class="gsn_module_claim_uca4 gsnelem gsnasmp" id="node_a00005">
<title>A00005</title>
<path class="border" d="M1061,301 a144,33,0,1,0,289,0 a144,33,0,1,0,-289,0 z" fill-opacity="0" stroke="black" stroke-width="1"/>
<text font-family="Arial" font-size="12" font-weight="bold" x="1109" y="292">A00005</text>
<text font-family="Arial" font-size="12" x="1109" y="311">Model of CPS behaviour is correct</text>
<text font-family="Arial" font-size="12" font-weight="bold" x="1344" y="329">A</text>
</g>
<g class="gsn_module_claim_uca4 gsnelem gsnjust" id="node_j00006">
<title>J00006</title>
<path class="border" d="M989,408 a216,33,0,1,0,432,0 a216,33,0,1,0,-432,0 z" fill-opacity="0" stroke="black" stroke-width="1"/>
<text font-family="Arial" font-size="12" font-weight="bold" x="1058" y="399">J00006</text>
<text font-family="Arial" font-size="12" x="1058" y="418">Scenarios automatically found using model-checking</text>
<text font-family="Arial" font-size="12" font-weight="bold" x="1416" y="436">J</text>
</g>
<g class="gsn_module_claim_uca4 gsnelem gsngoal" id="node_g00019">
<title>G00019</title>
<path class="border" d="M744,482 L1020,482 L1020,542 L744,542 z" fill-opacity="0" stroke="black" stroke-width="1"/>
<text font-family="Arial" font-size="12" font-weight="bold" x="751" y="501">G00019</text>
<text font-family="Arial" font-size="12" x="751" y="520">All potential threat scenarios leading to UCA4 </text>
<text font-family="Arial" font-size="12" x="751" y="534"> have been identified and are mitigated</text>
</g>
<g class="gsn_module_claim_uca4 gsnelem gsnstgy" id="node_s00011">
<title>S00011</title>
<path class="border" d="M822,592 L956,592 L942,638 L808,638 z" fill-opacity="0" stroke="black" stroke-width="1"/>
<text font-family="Arial" font-size="12" font-weight="bold" x="830" y="611">S00011</text>
<text font-family="Arial" font-size="12" x="826" y="630">Decomposition</text>
</g>
<g class="gsn_module_claim_uca4 gsnelem gsnjust" id="node_j00007">
<title>J00007</title>
<path class="border" d="M989,615 a238,33,0,1,0,476,0 a238,33,0,1,0,-476,0 z" fill-opacity="0" stroke="black" stroke-width="1"/>
<text font-family="Arial" font-size="12" font-weight="bold" x="1065" y="606">J00007</text>
<text font-family="Arial" font-size="12" x="1065" y="625">Each TS is a different way the adversary can cause UCA4</text>
<text font-family="Arial" font-size="12" font-weight="bold" x="1460" y="643">J</text>
</g>
<g class="gsn_module_claim_uca4 gsnelem gsngoal" id="node_g00020">
<title>G00020</title>
<path class="border" d="M166,688 L270,688 L270,734 L166,734 z" fill-opacity="0" stroke="black" stroke-width="1"/>
<text font-family="Arial" font-size="12" font-weight="bold" x="173" y="707">G00020</text>
<text font-family="Arial" font-size="12" x="173" y="726">TS-7 is mitigated</text>
</g>
<g class="gsn_module_claim_uca4 gsnelem gsngoal" id="node_g00022">
<title>G00022</title>
<path class="border" d="M602,688 L706,688 L706,734 L602,734 z" fill-opacity="0" stroke="black" stroke-width="1"/>
<text font-family="Arial" font-size="12" font-weight="bold" x="609" y="707">G00022</text>
<text font-family="Arial" font-size="12" x="609" y="726">TS-9 is mitigated</text>
</g>
<g class="gsn_module_claim_uca4 gsnelem gsngoal" id="node_g00024">
<title>G00024</title>
<path class="border" d="M1048,688 L1152,688 L1152,734 L1048,734 z" fill-opacity="0" stroke="black" stroke-width="1"/>
<text font-family="Arial" font-size="12" font-weight="bold" x="1055" y="707">G00024</text>
<text font-family="Arial" font-size="12" x="1055" y="726">TS-8 is mitigated</text>
</g>
<g class="gsn_module_claim_uca4 gsnelem gsngoal" id="node_g00026">
<title>G00026</title>
<path class="border" d="M1494,688 L1598,688 L1598,734 L1494,734 z" fill-opacity="0" stroke="black" stroke-width="1"/>
<text font-family="Arial" font-size="12" font-weight="bold" x="1501" y="707">G00026</text>
<text font-family="Arial" font-size="12" x="1501" y="726">TS-6 is mitigated</text>
</g>
<g class="gsn_module_claim_uca4 gsnelem gsnstgy" id="node_s00012">
<title>S00012</title>
<path class="border" d="M158,774 L292,774 L278,820 L144,820 z" fill-opacity="0" stroke="black" stroke-width="1"/>
<text font-family="Arial" font-size="12" font-weight="bold" x="166" y="793">S00012</text>
<text font-family="Arial" font-size="12" x="162" y="812">Substitution</text>
</g>
<g class="gsn_module_claim_uca4 gsnelem gsnstgy" id="node_s00013">
<title>S00013</title>
<path class="border" d="M594,774 L728,774 L714,820 L580,820 z" fill-opacity="0" stroke="black" stroke-width="1"/>
<text font-family="Arial" font-size="12" font-weight="bold" x="602" y="793">S00013</text>
<text font-family="Arial" font-size="12" x="598" y="812">Substitution</text>
</g>
<g class="gsn_module_claim_uca4 gsnelem gsnstgy" id="node_s00014">
<title>S00014</title>
<path class="border" d="M1040,774 L1174,774 L1160,820 L1026,820 z" fill-opacity="0" stroke="black" stroke-width="1"/>
<text font-family="Arial" font-size="12" font-weight="bold" x="1048" y="793">S00014</text>
<text font-family="Arial" font-size="12" x="1044" y="812">Substitution</text>
</g>
<g class="gsn_module_claim_uca4 gsnelem gsnstgy" id="node_s00015">
<title>S00015</title>
<path class="border" d="M1486,774 L1620,774 L1606,820 L1472,820 z" fill-opacity="0" stroke="black" stroke-width="1"/>
<text font-family="Arial" font-size="12" font-weight="bold" x="1494" y="793">S00015</text>
<text font-family="Arial" font-size="12" x="1490" y="812">Substitution</text>
</g>
<g class="gsn_module_claim_uca4 gsnelem gsngoal" id="node_g00021">
<title>G00021</title>
<path class="border" d="M23,860 L413,860 L413,948 L23,948 z" fill-opacity="0" stroke="black" stroke-width="1"/>
<text font-family="Arial" font-size="12" font-weight="bold" x="30" y="879">G00021</text>
<text font-family="Arial" font-size="12" x="30" y="898">Threat scenario is exploitable within </text>
<text font-family="Arial" font-size="12" x="30" y="912"> acceptable risk (Computed likelihood = 2.337671632895998e-05) </text>
<text font-family="Arial" font-size="12" x="30" y="926"> under the current system configuration </text>
<text font-family="Arial" font-size="12" x="30" y="940"> as per attack path analysis</text>
</g>
<g class="gsn_module_claim_uca4 gsnelem gsngoal" id="node_g00023">
<title>G00023</title>
<path class="border" d="M459,860 L849,860 L849,948 L459,948 z" fill-opacity="0" stroke="black" stroke-width="1"/>
<text font-family="Arial" font-size="12" font-weight="bold" x="466" y="879">G00023</text>
<text font-family="Arial" font-size="12" x="466" y="898">Threat scenario is exploitable within </text>
<text font-family="Arial" font-size="12" x="466" y="912"> acceptable risk (Computed likelihood = 4.329021542399996e-05) </text>
<text font-family="Arial" font-size="12" x="466" y="926"> under the current system configuration </text>
<text font-family="Arial" font-size="12" x="466" y="940"> as per attack path analysis</text>
</g>
<g class="gsn_module_claim_uca4 gsnelem gsngoal" id="node_g00025">
<title>G00025</title>
<path class="border" d="M991,867 L1209,867 L1209,941 L991,941 z" fill-opacity="0" stroke="black" stroke-width="1"/>
<text font-family="Arial" font-size="12" font-weight="bold" x="998" y="886">G00025</text>
<text font-family="Arial" font-size="12" x="998" y="905">Scenario TS-8 is not exploitable </text>
<text font-family="Arial" font-size="12" x="998" y="919"> in the current system configuration </text>
<text font-family="Arial" font-size="12" x="998" y="933"> as per attack path analysis</text>
</g>
<g class="gsn_module_claim_uca4 gsnelem gsngoal" id="node_g00027">
<title>G00027</title>
<path class="border" d="M1351,860 L1741,860 L1741,948 L1351,948 z" fill-opacity="0" stroke="black" stroke-width="1"/>
<text font-family="Arial" font-size="12" font-weight="bold" x="1358" y="879">G00027</text>
<text font-family="Arial" font-size="12" x="1358" y="898">Threat scenario is exploitable within </text>
<text font-family="Arial" font-size="12" x="1358" y="912"> acceptable risk (Computed likelihood = 4.329021542399996e-05) </text>
<text font-family="Arial" font-size="12" x="1358" y="926"> under the current system configuration </text>
<text font-family="Arial" font-size="12" x="1358" y="940"> as per attack path analysis</text>
</g>
<a href="claim-TS-7.svg#node_g00045">
<g class="gsn_module_claim_ts_7 gsnelem gsnawaygoal" id="node_g00045">
<title>G00045</title>
<path class="border" d="M20,1054 V988 H416 V1054" fill-opacity="0" stroke="black" stroke-width="1"/>
<text font-family="Arial" font-size="12" font-weight="bold" x="27" y="1007">G00045</text>
<text font-family="Arial" font-size="12" x="27" y="1026">Risk of adversary being in the position of causing TS is acceptable </text>
<text font-family="Arial" font-size="12" x="27" y="1040"> under the current system configuration</text>
<a href="claim-TS-7.svg#node_g00045">
<path class="border" d="M20,1054 h397 v28 h-397 z" fill-opacity="0" stroke="black" stroke-width="1"/>
<text font-family="Arial" font-size="12" font-weight="bold" x="54" y="1075">claim-TS-7</text>
</a>
<use href="#module_icon" x="27" y="1061"/>
</g>
</a>
<a href="claim-TS-9.svg#node_g00048">
<g class="gsn_module_claim_ts_9 gsnelem gsnawaygoal" id="node_g00048">
<title>G00048</title>
<path class="border" d="M456,1054 V988 H852 V1054" fill-opacity="0" stroke="black" stroke-width="1"/>
<text font-family="Arial" font-size="12" font-weight="bold" x="463" y="1007">G00048</text>
<text font-family="Arial" font-size="12" x="463" y="1026">Risk of adversary being in the position of causing TS is acceptable </text>
<text font-family="Arial" font-size="12" x="463" y="1040"> under the current system configuration</text>
<a href="claim-TS-9.svg#node_g00048">
<path class="border" d="M456,1054 h397 v28 h-397 z" fill-opacity="0" stroke="black" stroke-width="1"/>
<text font-family="Arial" font-size="12" font-weight="bold" x="490" y="1075">claim-TS-9</text>
</a>
<use href="#module_icon" x="463" y="1061"/>
</g>
</a>
<a href="claim-TS-8.svg#node_g00050">
<g class="gsn_module_claim_ts_8 gsnelem gsnawaygoal" id="node_g00050">
<title>G00050</title>
<path class="border" d="M892,1047 V995 H1308 V1047" fill-opacity="0" stroke="black" stroke-width="1"/>
<text font-family="Arial" font-size="12" font-weight="bold" x="899" y="1014">G00050</text>
<text font-family="Arial" font-size="12" x="899" y="1033">Scenario TS-8 is not exploitable under the current system configuration</text>
<a href="claim-TS-8.svg#node_g00050">
<path class="border" d="M892,1047 h416 v28 h-416 z" fill-opacity="0" stroke="black" stroke-width="1"/>
<text font-family="Arial" font-size="12" font-weight="bold" x="926" y="1068">claim-TS-8</text>
</a>
<use href="#module_icon" x="899" y="1054"/>
</g>
</a>
<a href="claim-TS-6.svg#node_g00052">
<g class="gsn_module_claim_ts_6 gsnelem gsnawaygoal" id="node_g00052">
<title>G00052</title>
<path class="border" d="M1348,1054 V988 H1744 V1054" fill-opacity="0" stroke="black" stroke-width="1"/>
<text font-family="Arial" font-size="12" font-weight="bold" x="1355" y="1007">G00052</text>
<text font-family="Arial" font-size="12" x="1355" y="1026">Risk of adversary being in the position of causing TS is acceptable </text>
<text font-family="Arial" font-size="12" x="1355" y="1040"> under the current system configuration</text>
<a href="claim-TS-6.svg#node_g00052">
<path class="border" d="M1348,1054 h397 v28 h-397 z" fill-opacity="0" stroke="black" stroke-width="1"/>
<text font-family="Arial" font-size="12" font-weight="bold" x="1382" y="1075">claim-TS-6</text>
</a>
<use href="#module_icon" x="1355" y="1061"/>
</g>
</a>
<path class="gsnedge gsninspby" d="M882,114 C882,144,882,124,882,144" fill-opacity="0" marker-end="url(#supportedby_arrow)" stroke="black" stroke-width="1"/>
<path class="gsnedge gsninspby" d="M882,228 C882,258,882,302,882,322" fill-opacity="0" marker-end="url(#supportedby_arrow)" stroke="black" stroke-width="1"/>
<path class="gsnedge gsninspby" d="M882,542 C882,572,882,562,882,582" fill-opacity="0" marker-end="url(#supportedby_arrow)" stroke="black" stroke-width="1"/>
<path class="gsnedge gsninspby" d="M218,734 C218,764,218,744,218,764" fill-opacity="0" marker-end="url(#supportedby_arrow)" stroke="black" stroke-width="1"/>
<path class="gsnedge gsninspby" d="M218,948 C218,978,218,958,218,978" fill-opacity="0" marker-end="url(#supportedby_arrow)" stroke="black" stroke-width="1"/>
<path class="gsnedge gsninspby" d="M654,734 C654,764,654,744,654,764" fill-opacity="0" marker-end="url(#supportedby_arrow)" stroke="black" stroke-width="1"/>
<path class="gsnedge gsninspby" d="M654,948 C654,978,654,958,654,978" fill-opacity="0" marker-end="url(#supportedby_arrow)" stroke="black" stroke-width="1"/>
<path class="gsnedge gsninspby" d="M1100,734 C1100,764,1100,744,1100,764" fill-opacity="0" marker-end="url(#supportedby_arrow)" stroke="black" stroke-width="1"/>
<path class="gsnedge gsninspby" d="M1100,941 C1100,971,1100,965,1100,985" fill-opacity="0" marker-end="url(#supportedby_arrow)" stroke="black" stroke-width="1"/>
<path class="gsnedge gsninspby" d="M1546,734 C1546,764,1546,744,1546,764" fill-opacity="0" marker-end="url(#supportedby_arrow)" stroke="black" stroke-width="1"/>
<path class="gsnedge gsninspby" d="M1546,948 C1546,978,1546,958,1546,978" fill-opacity="0" marker-end="url(#supportedby_arrow)" stroke="black" stroke-width="1"/>
<path class="gsnedge gsninctxt" d="M949,355 C979,355,1031,301,1051,301" fill-opacity="0" marker-end="url(#incontextof_arrow)" stroke="black" stroke-width="1"/>
<path class="gsnedge gsninctxt" d="M815,355 C785,355,805,355,785,355" fill-opacity="0" marker-end="url(#incontextof_arrow)" stroke="black" stroke-width="1"/>
<path class="gsnedge gsninctxt" d="M949,355 C979,355,959,408,979,408" fill-opacity="0" marker-end="url(#incontextof_arrow)" stroke="black" stroke-width="1"/>
<path class="gsnedge gsninspby" d="M882,378 C882,408,882,452,882,472" fill-opacity="0" marker-end="url(#supportedby_arrow)" stroke="black" stroke-width="1"/>
<path class="gsnedge gsninctxt" d="M949,615 C979,615,959,615,979,615" fill-opacity="0" marker-end="url(#incontextof_arrow)" stroke="black" stroke-width="1"/>
<path class="gsnedge gsninspby" d="M882,638 C882,668,218,658,218,678" fill-opacity="0" marker-end="url(#supportedby_arrow)" stroke="black" stroke-width="1"/>
<path class="gsnedge gsninspby" d="M882,638 C882,668,654,658,654,678" fill-opacity="0" marker-end="url(#supportedby_arrow)" stroke="black" stroke-width="1"/>
<path class="gsnedge gsninspby" d="M882,638 C882,668,1100,658,1100,678" fill-opacity="0" marker-end="url(#supportedby_arrow)" stroke="black" stroke-width="1"/>
<path class="gsnedge gsninspby" d="M882,638 C882,668,1546,658,1546,678" fill-opacity="0" marker-end="url(#supportedby_arrow)" stroke="black" stroke-width="1"/>
<path class="gsnedge gsninspby" d="M218,820 C218,850,218,830,218,850" fill-opacity="0" marker-end="url(#supportedby_arrow)" stroke="black" stroke-width="1"/>
<path class="gsnedge gsninspby" d="M654,820 C654,850,654,830,654,850" fill-opacity="0" marker-end="url(#supportedby_arrow)" stroke="black" stroke-width="1"/>
<path class="gsnedge gsninspby" d="M1100,820 C1100,850,1100,837,1100,857" fill-opacity="0" marker-end="url(#supportedby_arrow)" stroke="black" stroke-width="1"/>
<path class="gsnedge gsninspby" d="M1546,820 C1546,850,1546,830,1546,850" fill-opacity="0" marker-end="url(#supportedby_arrow)" stroke="black" stroke-width="1"/>
<g class="gsnmodule" id="node_gsn_module">
<title>Module Information</title>
<text font-family="Arial" font-size="12" x="1480" y="1144">Module: claim-UCA4</text>
<text font-family="Arial" font-size="12" x="1480" y="1158">Assurance Case Fragment for Request MA provided with wrong zone. (UCA4).</text>
<text font-family="Arial" font-size="12" x="1480" y="1172">Generated on: 2024-10-31T13:04:20.840169000Z</text>
</g>
</svg>