<?xml version="1.0" encoding="UTF-8"?>
<svg class="gsndiagram" viewBox="0 0 2828 1197" xmlns="http://www.w3.org/2000/svg">
<symbol id="module_icon">
<rect fill="lightgrey" height="5" stroke="black" stroke-width="1" width="10" x="0" y="0"/>
<rect fill="lightgrey" height="10" stroke="black" stroke-width="1" width="20" x="0" y="5"/>
</symbol>
<symbol id="acp">
<rect fill="black" height="10" stroke="black" stroke-width="1" width="10" x="0" y="0"/>
</symbol>
<marker id="composite_arrow" markerHeight="9" markerUnits="userSpaceOnUse" markerWidth="10" orient="auto-start-reverse" refX="0" refY="4.5">
<polyline fill-opacity="0" points="0 0, 6 4.5, 0 9" stroke="black" stroke-width="1"/>
<polyline fill-opacity="0" points="4 0, 10 4.5, 4 9" stroke="black" stroke-width="1"/>
<polyline fill-opacity="0" points="0 4.5, 10 4.5" stroke="black" stroke-width="1"/>
</marker>
<marker id="supportedby_arrow" markerHeight="9" markerUnits="userSpaceOnUse" markerWidth="10" orient="auto-start-reverse" refX="0" refY="4.5">
<polyline fill="black" points="0 0, 10 4.5, 0 9"/>
</marker>
<marker id="incontextof_arrow" markerHeight="9" markerUnits="userSpaceOnUse" markerWidth="10" orient="auto-start-reverse" refX="0" refY="4.5">
<polyline fill-opacity="0" points="0 0, 10 4.5, 0 9, 0 0" stroke="black" stroke-width="1"/>
</marker>
<style type="text/css">
.notVerified path { fill: red; fill-opacity: 1;}
/* .notVerified text,a { fill: white; } */
</style>
<a href="claim-H1.svg#node_g00011">
<g class="gsn_module_claim_h1 gsnelem gsnawaygoal" id="node_g00011">
<title>G00011</title>
<path class="border" d="M1030,86 V20 H1616 V86" fill-opacity="0" stroke="black" stroke-width="1"/>
<text font-family="Arial" font-size="12" font-weight="bold" x="1037" y="39">G00011</text>
<text font-family="Arial" font-size="12" x="1037" y="58">Adversary cannot cause 'Authorisation provided with wrong value 'allow' when not required.' (UCA1) </text>
<text font-family="Arial" font-size="12" x="1037" y="72"> or likelihood is acceptable</text>
<a href="claim-H1.svg#node_g00011">
<path class="border" d="M1030,86 h587 v28 h-587 z" fill-opacity="0" stroke="black" stroke-width="1"/>
<text font-family="Arial" font-size="12" font-weight="bold" x="1064" y="107">claim-H1</text>
</a>
<use href="#module_icon" x="1037" y="93"/>
</g>
</a>
<g class="gsn_module_claim_uca1 gsnelem gsngoal" id="node_g00028">
<title>G00028</title>
<path class="border" d="M1039,154 L1607,154 L1607,228 L1039,228 z" fill-opacity="0" stroke="black" stroke-width="1"/>
<text font-family="Arial" font-size="12" font-weight="bold" x="1046" y="173">G00028</text>
<text font-family="Arial" font-size="12" x="1046" y="192">Unsafe Control Action Authorisation provided with wrong value 'allow' when not required. (UCA1) </text>
<text font-family="Arial" font-size="12" x="1046" y="206"> cannot be caused by an attack</text>
<text font-family="Arial" font-size="12" x="1046" y="220"> or the likelihood is acceptable</text>
</g>
<g class="gsn_module_claim_uca1 gsnelem gsnctxt" id="node_c00003">
<title>C00003</title>
<path class="border" d="M1042,332 L1206,332 C1216,332,1216,378,1206,378 L1042,378 C1032,378,1032,332,1042,332" fill-opacity="0" stroke="black" stroke-width="1"/>
<text font-family="Arial" font-size="12" font-weight="bold" x="1049" y="351">C00003</text>
<text font-family="Arial" font-size="12" x="1049" y="370">Under current threat model</text>
</g>
<g class="gsn_module_claim_uca1 gsnelem gsnstgy" id="node_s00016">
<title>S00016</title>
<path class="border" d="M1263,332 L1397,332 L1383,378 L1249,378 z" fill-opacity="0" stroke="black" stroke-width="1"/>
<text font-family="Arial" font-size="12" font-weight="bold" x="1271" y="351">S00016</text>
<text font-family="Arial" font-size="12" x="1267" y="370">Substitution</text>
</g>
<g class="gsn_module_claim_uca1 gsnelem gsnasmp" id="node_a00006">
<title>A00006</title>
<path class="border" d="M1502,301 a144,33,0,1,0,289,0 a144,33,0,1,0,-289,0 z" fill-opacity="0" stroke="black" stroke-width="1"/>
<text font-family="Arial" font-size="12" font-weight="bold" x="1550" y="292">A00006</text>
<text font-family="Arial" font-size="12" x="1550" y="311">Model of CPS behaviour is correct</text>
<text font-family="Arial" font-size="12" font-weight="bold" x="1785" y="329">A</text>
</g>
<g class="gsn_module_claim_uca1 gsnelem gsnjust" id="node_j00008">
<title>J00008</title>
<path class="border" d="M1430,408 a216,33,0,1,0,432,0 a216,33,0,1,0,-432,0 z" fill-opacity="0" stroke="black" stroke-width="1"/>
<text font-family="Arial" font-size="12" font-weight="bold" x="1499" y="399">J00008</text>
<text font-family="Arial" font-size="12" x="1499" y="418">Scenarios automatically found using model-checking</text>
<text font-family="Arial" font-size="12" font-weight="bold" x="1857" y="436">J</text>
</g>
<g class="gsn_module_claim_uca1 gsnelem gsngoal" id="node_g00029">
<title>G00029</title>
<path class="border" d="M1185,482 L1461,482 L1461,542 L1185,542 z" fill-opacity="0" stroke="black" stroke-width="1"/>
<text font-family="Arial" font-size="12" font-weight="bold" x="1192" y="501">G00029</text>
<text font-family="Arial" font-size="12" x="1192" y="520">All potential threat scenarios leading to UCA1 </text>
<text font-family="Arial" font-size="12" x="1192" y="534"> have been identified and are mitigated</text>
</g>
<g class="gsn_module_claim_uca1 gsnelem gsnstgy" id="node_s00017">
<title>S00017</title>
<path class="border" d="M1263,592 L1397,592 L1383,638 L1249,638 z" fill-opacity="0" stroke="black" stroke-width="1"/>
<text font-family="Arial" font-size="12" font-weight="bold" x="1271" y="611">S00017</text>
<text font-family="Arial" font-size="12" x="1267" y="630">Decomposition</text>
</g>
<g class="gsn_module_claim_uca1 gsnelem gsnjust" id="node_j00009">
<title>J00009</title>
<path class="border" d="M1430,615 a238,33,0,1,0,476,0 a238,33,0,1,0,-476,0 z" fill-opacity="0" stroke="black" stroke-width="1"/>
<text font-family="Arial" font-size="12" font-weight="bold" x="1506" y="606">J00009</text>
<text font-family="Arial" font-size="12" x="1506" y="625">Each TS is a different way the adversary can cause UCA1</text>
<text font-family="Arial" font-size="12" font-weight="bold" x="1901" y="643">J</text>
</g>
<g class="gsn_module_claim_uca1 gsnelem gsngoal" id="node_g00030">
<title>G00030</title>
<path class="border" d="M164,688 L268,688 L268,734 L164,734 z" fill-opacity="0" stroke="black" stroke-width="1"/>
<text font-family="Arial" font-size="12" font-weight="bold" x="171" y="707">G00030</text>
<text font-family="Arial" font-size="12" x="171" y="726">TS-0 is mitigated</text>
</g>
<g class="gsn_module_claim_uca1 gsnelem gsngoal" id="node_g00032">
<title>G00032</title>
<path class="border" d="M595,688 L699,688 L699,734 L595,734 z" fill-opacity="0" stroke="black" stroke-width="1"/>
<text font-family="Arial" font-size="12" font-weight="bold" x="602" y="707">G00032</text>
<text font-family="Arial" font-size="12" x="602" y="726">TS-3 is mitigated</text>
</g>
<g class="gsn_module_claim_uca1 gsnelem gsngoal" id="node_g00034">
<title>G00034</title>
<path class="border" d="M1041,688 L1145,688 L1145,734 L1041,734 z" fill-opacity="0" stroke="black" stroke-width="1"/>
<text font-family="Arial" font-size="12" font-weight="bold" x="1048" y="707">G00034</text>
<text font-family="Arial" font-size="12" x="1048" y="726">TS-2 is mitigated</text>
</g>
<g class="gsn_module_claim_uca1 gsnelem gsngoal" id="node_g00036">
<title>G00036</title>
<path class="border" d="M1497,688 L1601,688 L1601,734 L1497,734 z" fill-opacity="0" stroke="black" stroke-width="1"/>
<text font-family="Arial" font-size="12" font-weight="bold" x="1504" y="707">G00036</text>
<text font-family="Arial" font-size="12" x="1504" y="726">TS-5 is mitigated</text>
</g>
<g class="gsn_module_claim_uca1 gsnelem gsngoal" id="node_g00038">
<title>G00038</title>
<path class="border" d="M1943,688 L2047,688 L2047,734 L1943,734 z" fill-opacity="0" stroke="black" stroke-width="1"/>
<text font-family="Arial" font-size="12" font-weight="bold" x="1950" y="707">G00038</text>
<text font-family="Arial" font-size="12" x="1950" y="726">TS-1 is mitigated</text>
</g>
<g class="gsn_module_claim_uca1 gsnelem gsngoal" id="node_g00040">
<title>G00040</title>
<path class="border" d="M2379,688 L2483,688 L2483,734 L2379,734 z" fill-opacity="0" stroke="black" stroke-width="1"/>
<text font-family="Arial" font-size="12" font-weight="bold" x="2386" y="707">G00040</text>
<text font-family="Arial" font-size="12" x="2386" y="726">TS-4 is mitigated</text>
</g>
<g class="gsn_module_claim_uca1 gsnelem gsnstgy" id="node_s00018">
<title>S00018</title>
<path class="border" d="M156,774 L290,774 L276,820 L142,820 z" fill-opacity="0" stroke="black" stroke-width="1"/>
<text font-family="Arial" font-size="12" font-weight="bold" x="164" y="793">S00018</text>
<text font-family="Arial" font-size="12" x="160" y="812">Substitution</text>
</g>
<g class="gsn_module_claim_uca1 gsnelem gsnstgy" id="node_s00019">
<title>S00019</title>
<path class="border" d="M587,774 L721,774 L707,820 L573,820 z" fill-opacity="0" stroke="black" stroke-width="1"/>
<text font-family="Arial" font-size="12" font-weight="bold" x="595" y="793">S00019</text>
<text font-family="Arial" font-size="12" x="591" y="812">Substitution</text>
</g>
<g class="gsn_module_claim_uca1 gsnelem gsnstgy" id="node_s00020">
<title>S00020</title>
<path class="border" d="M1033,774 L1167,774 L1153,820 L1019,820 z" fill-opacity="0" stroke="black" stroke-width="1"/>
<text font-family="Arial" font-size="12" font-weight="bold" x="1041" y="793">S00020</text>
<text font-family="Arial" font-size="12" x="1037" y="812">Substitution</text>
</g>
<g class="gsn_module_claim_uca1 gsnelem gsnstgy" id="node_s00021">
<title>S00021</title>
<path class="border" d="M1489,774 L1623,774 L1609,820 L1475,820 z" fill-opacity="0" stroke="black" stroke-width="1"/>
<text font-family="Arial" font-size="12" font-weight="bold" x="1497" y="793">S00021</text>
<text font-family="Arial" font-size="12" x="1493" y="812">Substitution</text>
</g>
<g class="gsn_module_claim_uca1 gsnelem gsnstgy" id="node_s00022">
<title>S00022</title>
<path class="border" d="M1935,774 L2069,774 L2055,820 L1921,820 z" fill-opacity="0" stroke="black" stroke-width="1"/>
<text font-family="Arial" font-size="12" font-weight="bold" x="1943" y="793">S00022</text>
<text font-family="Arial" font-size="12" x="1939" y="812">Substitution</text>
</g>
<g class="gsn_module_claim_uca1 gsnelem gsnstgy" id="node_s00023">
<title>S00023</title>
<path class="border" d="M2371,774 L2505,774 L2491,820 L2357,820 z" fill-opacity="0" stroke="black" stroke-width="1"/>
<text font-family="Arial" font-size="12" font-weight="bold" x="2379" y="793">S00023</text>
<text font-family="Arial" font-size="12" x="2375" y="812">Substitution</text>
</g>
<g class="notVerified gsn_module_claim_uca1 gsnelem gsngoal gsn_undeveloped" id="node_g00031">
<title>G00031</title>
<path class="border" d="M20,860 L412,860 L412,954 L20,954 z" fill-opacity="0" stroke="black" stroke-width="1"/>
<text font-family="Arial" font-size="12" font-weight="bold" x="27" y="879">G00031</text>
<text font-family="Arial" font-size="12" x="27" y="898">Threat scenario is exploitable within </text>
<text font-family="Arial" font-size="12" x="27" y="912"> acceptable risk (Computed likelihood = 0.0007361279999999995) </text>
<text font-family="Arial" font-size="12" x="27" y="926"> under the current system configuration </text>
<text font-family="Arial" font-size="12" x="27" y="940"> as per attack path analysis</text>
<path d="M216,954 l5,5 l-5,5 l-5,-5 z" fill-opacity="0" stroke="black" stroke-width="1"/>
</g>
<g class="gsn_module_claim_uca1 gsnelem gsngoal" id="node_g00033">
<title>G00033</title>
<path class="border" d="M452,863 L842,863 L842,951 L452,951 z" fill-opacity="0" stroke="black" stroke-width="1"/>
<text font-family="Arial" font-size="12" font-weight="bold" x="459" y="882">G00033</text>
<text font-family="Arial" font-size="12" x="459" y="901">Threat scenario is exploitable within </text>
<text font-family="Arial" font-size="12" x="459" y="915"> acceptable risk (Computed likelihood = 4.329021542399996e-05) </text>
<text font-family="Arial" font-size="12" x="459" y="929"> under the current system configuration </text>
<text font-family="Arial" font-size="12" x="459" y="943"> as per attack path analysis</text>
</g>
<g class="gsn_module_claim_uca1 gsnelem gsngoal" id="node_g00035">
<title>G00035</title>
<path class="border" d="M984,870 L1202,870 L1202,944 L984,944 z" fill-opacity="0" stroke="black" stroke-width="1"/>
<text font-family="Arial" font-size="12" font-weight="bold" x="991" y="889">G00035</text>
<text font-family="Arial" font-size="12" x="991" y="908">Scenario TS-2 is not exploitable </text>
<text font-family="Arial" font-size="12" x="991" y="922"> in the current system configuration </text>
<text font-family="Arial" font-size="12" x="991" y="936"> as per attack path analysis</text>
</g>
<g class="gsn_module_claim_uca1 gsnelem gsngoal" id="node_g00037">
<title>G00037</title>
<path class="border" d="M1440,870 L1658,870 L1658,944 L1440,944 z" fill-opacity="0" stroke="black" stroke-width="1"/>
<text font-family="Arial" font-size="12" font-weight="bold" x="1447" y="889">G00037</text>
<text font-family="Arial" font-size="12" x="1447" y="908">Scenario TS-5 is not exploitable </text>
<text font-family="Arial" font-size="12" x="1447" y="922"> in the current system configuration </text>
<text font-family="Arial" font-size="12" x="1447" y="936"> as per attack path analysis</text>
</g>
<g class="gsn_module_claim_uca1 gsnelem gsngoal" id="node_g00039">
<title>G00039</title>
<path class="border" d="M1800,863 L2190,863 L2190,951 L1800,951 z" fill-opacity="0" stroke="black" stroke-width="1"/>
<text font-family="Arial" font-size="12" font-weight="bold" x="1807" y="882">G00039</text>
<text font-family="Arial" font-size="12" x="1807" y="901">Threat scenario is exploitable within </text>
<text font-family="Arial" font-size="12" x="1807" y="915"> acceptable risk (Computed likelihood = 2.337671632895998e-05) </text>
<text font-family="Arial" font-size="12" x="1807" y="929"> under the current system configuration </text>
<text font-family="Arial" font-size="12" x="1807" y="943"> as per attack path analysis</text>
</g>
<g class="gsn_module_claim_uca1 gsnelem gsngoal" id="node_g00041">
<title>G00041</title>
<path class="border" d="M2236,863 L2626,863 L2626,951 L2236,951 z" fill-opacity="0" stroke="black" stroke-width="1"/>
<text font-family="Arial" font-size="12" font-weight="bold" x="2243" y="882">G00041</text>
<text font-family="Arial" font-size="12" x="2243" y="901">Threat scenario is exploitable within </text>
<text font-family="Arial" font-size="12" x="2243" y="915"> acceptable risk (Computed likelihood = 4.329021542399996e-05) </text>
<text font-family="Arial" font-size="12" x="2243" y="929"> under the current system configuration </text>
<text font-family="Arial" font-size="12" x="2243" y="943"> as per attack path analysis</text>
</g>
<a href="claim-TS-3.svg#node_g00055">
<g class="gsn_module_claim_ts_3 gsnelem gsnawaygoal" id="node_g00055">
<title>G00055</title>
<path class="border" d="M449,1060 V994 H845 V1060" fill-opacity="0" stroke="black" stroke-width="1"/>
<text font-family="Arial" font-size="12" font-weight="bold" x="456" y="1013">G00055</text>
<text font-family="Arial" font-size="12" x="456" y="1032">Risk of adversary being in the position of causing TS is acceptable </text>
<text font-family="Arial" font-size="12" x="456" y="1046"> under the current system configuration</text>
<a href="claim-TS-3.svg#node_g00055">
<path class="border" d="M449,1060 h397 v28 h-397 z" fill-opacity="0" stroke="black" stroke-width="1"/>
<text font-family="Arial" font-size="12" font-weight="bold" x="483" y="1081">claim-TS-3</text>
</a>
<use href="#module_icon" x="456" y="1067"/>
</g>
</a>
<a href="claim-TS-2.svg#node_g00057">
<g class="gsn_module_claim_ts_2 gsnelem gsnawaygoal" id="node_g00057">
<title>G00057</title>
<path class="border" d="M885,1053 V1001 H1301 V1053" fill-opacity="0" stroke="black" stroke-width="1"/>
<text font-family="Arial" font-size="12" font-weight="bold" x="892" y="1020">G00057</text>
<text font-family="Arial" font-size="12" x="892" y="1039">Scenario TS-2 is not exploitable under the current system configuration</text>
<a href="claim-TS-2.svg#node_g00057">
<path class="border" d="M885,1053 h416 v28 h-416 z" fill-opacity="0" stroke="black" stroke-width="1"/>
<text font-family="Arial" font-size="12" font-weight="bold" x="919" y="1074">claim-TS-2</text>
</a>
<use href="#module_icon" x="892" y="1060"/>
</g>
</a>
<a href="claim-TS-5.svg#node_g00059">
<g class="gsn_module_claim_ts_5 gsnelem gsnawaygoal" id="node_g00059">
<title>G00059</title>
<path class="border" d="M1341,1053 V1001 H1757 V1053" fill-opacity="0" stroke="black" stroke-width="1"/>
<text font-family="Arial" font-size="12" font-weight="bold" x="1348" y="1020">G00059</text>
<text font-family="Arial" font-size="12" x="1348" y="1039">Scenario TS-5 is not exploitable under the current system configuration</text>
<a href="claim-TS-5.svg#node_g00059">
<path class="border" d="M1341,1053 h416 v28 h-416 z" fill-opacity="0" stroke="black" stroke-width="1"/>
<text font-family="Arial" font-size="12" font-weight="bold" x="1375" y="1074">claim-TS-5</text>
</a>
<use href="#module_icon" x="1348" y="1060"/>
</g>
</a>
<a href="claim-TS-1.svg#node_g00061">
<g class="gsn_module_claim_ts_1 gsnelem gsnawaygoal" id="node_g00061">
<title>G00061</title>
<path class="border" d="M1797,1060 V994 H2193 V1060" fill-opacity="0" stroke="black" stroke-width="1"/>
<text font-family="Arial" font-size="12" font-weight="bold" x="1804" y="1013">G00061</text>
<text font-family="Arial" font-size="12" x="1804" y="1032">Risk of adversary being in the position of causing TS is acceptable </text>
<text font-family="Arial" font-size="12" x="1804" y="1046"> under the current system configuration</text>
<a href="claim-TS-1.svg#node_g00061">
<path class="border" d="M1797,1060 h397 v28 h-397 z" fill-opacity="0" stroke="black" stroke-width="1"/>
<text font-family="Arial" font-size="12" font-weight="bold" x="1831" y="1081">claim-TS-1</text>
</a>
<use href="#module_icon" x="1804" y="1067"/>
</g>
</a>
<a href="claim-TS-4.svg#node_g00064">
<g class="gsn_module_claim_ts_4 gsnelem gsnawaygoal" id="node_g00064">
<title>G00064</title>
<path class="border" d="M2233,1060 V994 H2629 V1060" fill-opacity="0" stroke="black" stroke-width="1"/>
<text font-family="Arial" font-size="12" font-weight="bold" x="2240" y="1013">G00064</text>
<text font-family="Arial" font-size="12" x="2240" y="1032">Risk of adversary being in the position of causing TS is acceptable </text>
<text font-family="Arial" font-size="12" x="2240" y="1046"> under the current system configuration</text>
<a href="claim-TS-4.svg#node_g00064">
<path class="border" d="M2233,1060 h397 v28 h-397 z" fill-opacity="0" stroke="black" stroke-width="1"/>
<text font-family="Arial" font-size="12" font-weight="bold" x="2267" y="1081">claim-TS-4</text>
</a>
<use href="#module_icon" x="2240" y="1067"/>
</g>
</a>
<path class="gsnedge gsninspby" d="M1323,114 C1323,144,1323,124,1323,144" fill-opacity="0" marker-end="url(#supportedby_arrow)" stroke="black" stroke-width="1"/>
<path class="gsnedge gsninspby" d="M1323,228 C1323,258,1323,302,1323,322" fill-opacity="0" marker-end="url(#supportedby_arrow)" stroke="black" stroke-width="1"/>
<path class="gsnedge gsninspby" d="M1323,542 C1323,572,1323,562,1323,582" fill-opacity="0" marker-end="url(#supportedby_arrow)" stroke="black" stroke-width="1"/>
<path class="gsnedge gsninspby" d="M216,734 C216,764,216,744,216,764" fill-opacity="0" marker-end="url(#supportedby_arrow)" stroke="black" stroke-width="1"/>
<path class="gsnedge gsninspby" d="M647,734 C647,764,647,744,647,764" fill-opacity="0" marker-end="url(#supportedby_arrow)" stroke="black" stroke-width="1"/>
<path class="gsnedge gsninspby" d="M647,951 C647,981,647,964,647,984" fill-opacity="0" marker-end="url(#supportedby_arrow)" stroke="black" stroke-width="1"/>
<path class="gsnedge gsninspby" d="M1093,734 C1093,764,1093,744,1093,764" fill-opacity="0" marker-end="url(#supportedby_arrow)" stroke="black" stroke-width="1"/>
<path class="gsnedge gsninspby" d="M1093,944 C1093,974,1093,971,1093,991" fill-opacity="0" marker-end="url(#supportedby_arrow)" stroke="black" stroke-width="1"/>
<path class="gsnedge gsninspby" d="M1549,734 C1549,764,1549,744,1549,764" fill-opacity="0" marker-end="url(#supportedby_arrow)" stroke="black" stroke-width="1"/>
<path class="gsnedge gsninspby" d="M1549,944 C1549,974,1549,971,1549,991" fill-opacity="0" marker-end="url(#supportedby_arrow)" stroke="black" stroke-width="1"/>
<path class="gsnedge gsninspby" d="M1995,734 C1995,764,1995,744,1995,764" fill-opacity="0" marker-end="url(#supportedby_arrow)" stroke="black" stroke-width="1"/>
<path class="gsnedge gsninspby" d="M1995,951 C1995,981,1995,964,1995,984" fill-opacity="0" marker-end="url(#supportedby_arrow)" stroke="black" stroke-width="1"/>
<path class="gsnedge gsninspby" d="M2431,734 C2431,764,2431,744,2431,764" fill-opacity="0" marker-end="url(#supportedby_arrow)" stroke="black" stroke-width="1"/>
<path class="gsnedge gsninspby" d="M2431,951 C2431,981,2431,964,2431,984" fill-opacity="0" marker-end="url(#supportedby_arrow)" stroke="black" stroke-width="1"/>
<path class="gsnedge gsninctxt" d="M1390,355 C1420,355,1472,301,1492,301" fill-opacity="0" marker-end="url(#incontextof_arrow)" stroke="black" stroke-width="1"/>
<path class="gsnedge gsninctxt" d="M1256,355 C1226,355,1246,355,1226,355" fill-opacity="0" marker-end="url(#incontextof_arrow)" stroke="black" stroke-width="1"/>
<path class="gsnedge gsninctxt" d="M1390,355 C1420,355,1400,408,1420,408" fill-opacity="0" marker-end="url(#incontextof_arrow)" stroke="black" stroke-width="1"/>
<path class="gsnedge gsninspby" d="M1323,378 C1323,408,1323,452,1323,472" fill-opacity="0" marker-end="url(#supportedby_arrow)" stroke="black" stroke-width="1"/>
<path class="gsnedge gsninctxt" d="M1390,615 C1420,615,1400,615,1420,615" fill-opacity="0" marker-end="url(#incontextof_arrow)" stroke="black" stroke-width="1"/>
<path class="gsnedge gsninspby" d="M1323,638 C1323,668,216,658,216,678" fill-opacity="0" marker-end="url(#supportedby_arrow)" stroke="black" stroke-width="1"/>
<path class="gsnedge gsninspby" d="M1323,638 C1323,668,647,658,647,678" fill-opacity="0" marker-end="url(#supportedby_arrow)" stroke="black" stroke-width="1"/>
<path class="gsnedge gsninspby" d="M1323,638 C1323,668,1093,658,1093,678" fill-opacity="0" marker-end="url(#supportedby_arrow)" stroke="black" stroke-width="1"/>
<path class="gsnedge gsninspby" d="M1323,638 C1323,668,1549,658,1549,678" fill-opacity="0" marker-end="url(#supportedby_arrow)" stroke="black" stroke-width="1"/>
<path class="gsnedge gsninspby" d="M1323,638 C1323,668,1995,658,1995,678" fill-opacity="0" marker-end="url(#supportedby_arrow)" stroke="black" stroke-width="1"/>
<path class="gsnedge gsninspby" d="M1323,638 C1323,668,2431,658,2431,678" fill-opacity="0" marker-end="url(#supportedby_arrow)" stroke="black" stroke-width="1"/>
<path class="gsnedge gsninspby" d="M216,820 C216,850,216,830,216,850" fill-opacity="0" marker-end="url(#supportedby_arrow)" stroke="black" stroke-width="1"/>
<path class="gsnedge gsninspby" d="M647,820 C647,850,647,833,647,853" fill-opacity="0" marker-end="url(#supportedby_arrow)" stroke="black" stroke-width="1"/>
<path class="gsnedge gsninspby" d="M1093,820 C1093,850,1093,840,1093,860" fill-opacity="0" marker-end="url(#supportedby_arrow)" stroke="black" stroke-width="1"/>
<path class="gsnedge gsninspby" d="M1549,820 C1549,850,1549,840,1549,860" fill-opacity="0" marker-end="url(#supportedby_arrow)" stroke="black" stroke-width="1"/>
<path class="gsnedge gsninspby" d="M1995,820 C1995,850,1995,833,1995,853" fill-opacity="0" marker-end="url(#supportedby_arrow)" stroke="black" stroke-width="1"/>
<path class="gsnedge gsninspby" d="M2431,820 C2431,850,2431,833,2431,853" fill-opacity="0" marker-end="url(#supportedby_arrow)" stroke="black" stroke-width="1"/>
<g class="gsnmodule" id="node_gsn_module">
<title>Module Information</title>
<text font-family="Arial" font-size="12" x="2208" y="1149">Module: claim-UCA1</text>
<text font-family="Arial" font-size="12" x="2208" y="1163">Assurance Case Fragment for Authorisation provided with wrong value 'allow' when not required. (UCA1).</text>
<text font-family="Arial" font-size="12" x="2208" y="1177">Generated on: 2024-10-31T13:04:20.792354000Z</text>
</g>
</svg>