<?xml version="1.0" encoding="UTF-8"?>
<svg class="gsndiagram" viewBox="0 0 1548 918" xmlns="http://www.w3.org/2000/svg">
<symbol id="module_icon">
<rect fill="lightgrey" height="5" stroke="black" stroke-width="1" width="10" x="0" y="0"/>
<rect fill="lightgrey" height="10" stroke="black" stroke-width="1" width="20" x="0" y="5"/>
</symbol>
<symbol id="acp">
<rect fill="black" height="10" stroke="black" stroke-width="1" width="10" x="0" y="0"/>
</symbol>
<marker id="composite_arrow" markerHeight="9" markerUnits="userSpaceOnUse" markerWidth="10" orient="auto-start-reverse" refX="0" refY="4.5">
<polyline fill-opacity="0" points="0 0, 6 4.5, 0 9" stroke="black" stroke-width="1"/>
<polyline fill-opacity="0" points="4 0, 10 4.5, 4 9" stroke="black" stroke-width="1"/>
<polyline fill-opacity="0" points="0 4.5, 10 4.5" stroke="black" stroke-width="1"/>
</marker>
<marker id="supportedby_arrow" markerHeight="9" markerUnits="userSpaceOnUse" markerWidth="10" orient="auto-start-reverse" refX="0" refY="4.5">
<polyline fill="black" points="0 0, 10 4.5, 0 9"/>
</marker>
<marker id="incontextof_arrow" markerHeight="9" markerUnits="userSpaceOnUse" markerWidth="10" orient="auto-start-reverse" refX="0" refY="4.5">
<polyline fill-opacity="0" points="0 0, 10 4.5, 0 9, 0 0" stroke="black" stroke-width="1"/>
</marker>
<style type="text/css">
.notVerified path { fill: red; fill-opacity: 1;}
/* .notVerified text,a { fill: white; } */
</style>
<a href="claim-UCA1.svg#node_g00035">
<g class="gsn_module_claim_uca1 gsnelem gsnawaygoal" id="node_g00035">
<title>G00035</title>
<path class="border" d="M603,86 V20 H813 V86" fill-opacity="0" stroke="black" stroke-width="1"/>
<text font-family="Arial" font-size="12" font-weight="bold" x="610" y="39">G00035</text>
<text font-family="Arial" font-size="12" x="610" y="58">Scenario TS-2 is not exploitable </text>
<text font-family="Arial" font-size="12" x="610" y="72"> in the current system configuration</text>
<a href="claim-UCA1.svg#node_g00035">
<path class="border" d="M603,86 h211 v28 h-211 z" fill-opacity="0" stroke="black" stroke-width="1"/>
<text font-family="Arial" font-size="12" font-weight="bold" x="637" y="107">claim-UCA1</text>
</a>
<use href="#module_icon" x="610" y="93"/>
</g>
</a>
<g class="gsn_module_claim_ts_2 gsnelem gsngoal" id="node_g00058">
<title>G00058</title>
<path class="border" d="M510,154 L906,154 L906,214 L510,214 z" fill-opacity="0" stroke="black" stroke-width="1"/>
<text font-family="Arial" font-size="12" font-weight="bold" x="517" y="173">G00058</text>
<text font-family="Arial" font-size="12" x="517" y="192">Risk of adversary being in the position of causing TS is acceptable </text>
<text font-family="Arial" font-size="12" x="517" y="206"> under the current system configuration</text>
</g>
<g class="gsn_module_claim_ts_2 gsnelem gsnjust" id="node_j00016">
<title>J00016</title>
<path class="border" d="M299,287 a151,33,0,1,0,303,0 a151,33,0,1,0,-303,0 z" fill-opacity="0" stroke="black" stroke-width="1"/>
<text font-family="Arial" font-size="12" font-weight="bold" x="349" y="278">J00016</text>
<text font-family="Arial" font-size="12" x="349" y="297">Acceptable risk threashold is 0.0001</text>
<text font-family="Arial" font-size="12" font-weight="bold" x="596" y="315">J</text>
</g>
<g class="gsn_module_claim_ts_2 gsnelem gsnstgy" id="node_s00040">
<title>S00040</title>
<path class="border" d="M648,264 L782,264 L768,310 L634,310 z" fill-opacity="0" stroke="black" stroke-width="1"/>
<text font-family="Arial" font-size="12" font-weight="bold" x="656" y="283">S00040</text>
<text font-family="Arial" font-size="12" x="652" y="302">Calculation</text>
</g>
<g class="gsn_module_claim_ts_2 gsnelem gsnasmp" id="node_a00023">
<title>A00023</title>
<path class="border" d="M815,287 a151,33,0,1,0,302,0 a151,33,0,1,0,-302,0 z" fill-opacity="0" stroke="black" stroke-width="1"/>
<text font-family="Arial" font-size="12" font-weight="bold" x="866" y="278">A00023</text>
<text font-family="Arial" font-size="12" x="866" y="297">Calc. strategy is Bayesian Inference</text>
<text font-family="Arial" font-size="12" font-weight="bold" x="1112" y="315">A</text>
</g>
<g class="gsn_module_claim_ts_2 gsnelem gsngoal" id="node_g00059">
<title>G00059</title>
<path class="border" d="M258,360 L436,360 L436,420 L258,420 z" fill-opacity="0" stroke="black" stroke-width="1"/>
<text font-family="Arial" font-size="12" font-weight="bold" x="265" y="379">G00059</text>
<text font-family="Arial" font-size="12" x="265" y="398">Spoof (GNSS Loc) likelihood </text>
<text font-family="Arial" font-size="12" x="265" y="412"> is 0.0</text>
</g>
<g class="gsn_module_claim_ts_2 gsnelem gsngoal" id="node_g00060">
<title>G00060</title>
<path class="border" d="M976,360 L1162,360 L1162,420 L976,420 z" fill-opacity="0" stroke="black" stroke-width="1"/>
<text font-family="Arial" font-size="12" font-weight="bold" x="983" y="379">G00060</text>
<text font-family="Arial" font-size="12" x="983" y="398">Disrupt (RTK 2 Loc) likelihood </text>
<text font-family="Arial" font-size="12" x="983" y="412"> is 0.0</text>
</g>
<g class="gsn_module_claim_ts_2 gsnelem gsnctxt" id="node_c00014">
<title>C00014</title>
<path class="border" d="M30,480 L228,480 C238,480,238,526,228,526 L30,526 C20,526,20,480,30,480" fill-opacity="0" stroke="black" stroke-width="1"/>
<text font-family="Arial" font-size="12" font-weight="bold" x="37" y="499">C00014</text>
<text font-family="Arial" font-size="12" x="37" y="518">Security assessment carried out.</text>
</g>
<g class="gsn_module_claim_ts_2 gsnelem gsnstgy" id="node_s00041">
<title>S00041</title>
<path class="border" d="M285,480 L423,480 L409,526 L271,526 z" fill-opacity="0" stroke="black" stroke-width="1"/>
<text font-family="Arial" font-size="12" font-weight="bold" x="292" y="499">S00041</text>
<text font-family="Arial" font-size="12" x="288" y="518">Evidence Incorporation</text>
</g>
<g class="gsn_module_claim_ts_2 gsnelem gsnasmp" id="node_a00024">
<title>A00024</title>
<path class="border" d="M456,503 a123,43,0,1,0,247,0 a123,43,0,1,0,-247,0 z" fill-opacity="0" stroke="black" stroke-width="1"/>
<text font-family="Arial" font-size="12" font-weight="bold" x="498" y="487">A00024</text>
<text font-family="Arial" font-size="12" x="498" y="506">Computer network is known. </text>
<text font-family="Arial" font-size="12" x="498" y="520"> No 0-days vulnerabilities.</text>
<text font-family="Arial" font-size="12" font-weight="bold" x="697" y="541">A</text>
</g>
<g class="gsn_module_claim_ts_2 gsnelem gsnctxt" id="node_c00015">
<title>C00015</title>
<path class="border" d="M752,480 L950,480 C960,480,960,526,950,526 L752,526 C742,526,742,480,752,480" fill-opacity="0" stroke="black" stroke-width="1"/>
<text font-family="Arial" font-size="12" font-weight="bold" x="759" y="499">C00015</text>
<text font-family="Arial" font-size="12" x="759" y="518">Security assessment carried out.</text>
</g>
<g class="gsn_module_claim_ts_2 gsnelem gsnstgy" id="node_s00042">
<title>S00042</title>
<path class="border" d="M1007,480 L1145,480 L1131,526 L993,526 z" fill-opacity="0" stroke="black" stroke-width="1"/>
<text font-family="Arial" font-size="12" font-weight="bold" x="1014" y="499">S00042</text>
<text font-family="Arial" font-size="12" x="1010" y="518">Evidence Incorporation</text>
</g>
<g class="gsn_module_claim_ts_2 gsnelem gsnasmp" id="node_a00025">
<title>A00025</title>
<path class="border" d="M1178,503 a123,43,0,1,0,247,0 a123,43,0,1,0,-247,0 z" fill-opacity="0" stroke="black" stroke-width="1"/>
<text font-family="Arial" font-size="12" font-weight="bold" x="1220" y="487">A00025</text>
<text font-family="Arial" font-size="12" x="1220" y="506">Computer network is known. </text>
<text font-family="Arial" font-size="12" x="1220" y="520"> No 0-days vulnerabilities.</text>
<text font-family="Arial" font-size="12" font-weight="bold" x="1419" y="541">A</text>
</g>
<g class="gsn_module_claim_ts_2 gsnelem gsnsltn" id="node_sn00011">
<title>Sn00011</title>
<path class="border" d="M234,699 a113,113,0,1,0,226,0 a113,113,0,1,0,-226,0 z" fill-opacity="0" stroke="black" stroke-width="1"/>
<text font-family="Arial" font-size="12" font-weight="bold" x="249" y="690">Sn00011</text>
<text font-family="Arial" font-size="12" x="249" y="709">Attack Path Analysis (/path/to/ag). </text>
</g>
<g class="gsn_module_claim_ts_2 gsnelem gsnsltn" id="node_sn00012">
<title>Sn00012</title>
<path class="border" d="M956,699 a113,113,0,1,0,226,0 a113,113,0,1,0,-226,0 z" fill-opacity="0" stroke="black" stroke-width="1"/>
<text font-family="Arial" font-size="12" font-weight="bold" x="971" y="690">Sn00012</text>
<text font-family="Arial" font-size="12" x="971" y="709">Attack Path Analysis (/path/to/ag). </text>
</g>
<path class="gsnedge gsninspby" d="M708,114 C708,144,708,124,708,144" fill-opacity="0" marker-end="url(#supportedby_arrow)" stroke="black" stroke-width="1"/>
<path class="gsnedge gsninspby" d="M708,214 C708,244,708,234,708,254" fill-opacity="0" marker-end="url(#supportedby_arrow)" stroke="black" stroke-width="1"/>
<path class="gsnedge gsninspby" d="M347,420 C347,450,347,450,347,470" fill-opacity="0" marker-end="url(#supportedby_arrow)" stroke="black" stroke-width="1"/>
<path class="gsnedge gsninspby" d="M1069,420 C1069,450,1069,450,1069,470" fill-opacity="0" marker-end="url(#supportedby_arrow)" stroke="black" stroke-width="1"/>
<path class="gsnedge gsninctxt" d="M775,287 C805,287,785,287,805,287" fill-opacity="0" marker-end="url(#incontextof_arrow)" stroke="black" stroke-width="1"/>
<path class="gsnedge gsninctxt" d="M641,287 C611,287,631,287,611,287" fill-opacity="0" marker-end="url(#incontextof_arrow)" stroke="black" stroke-width="1"/>
<path class="gsnedge gsninspby" d="M708,310 C708,340,347,330,347,350" fill-opacity="0" marker-end="url(#supportedby_arrow)" stroke="black" stroke-width="1"/>
<path class="gsnedge gsninspby" d="M708,310 C708,340,1069,330,1069,350" fill-opacity="0" marker-end="url(#supportedby_arrow)" stroke="black" stroke-width="1"/>
<path class="gsnedge gsninctxt" d="M416,503 C446,503,426,503,446,503" fill-opacity="0" marker-end="url(#incontextof_arrow)" stroke="black" stroke-width="1"/>
<path class="gsnedge gsninctxt" d="M278,503 C248,503,268,503,248,503" fill-opacity="0" marker-end="url(#incontextof_arrow)" stroke="black" stroke-width="1"/>
<path class="gsnedge gsninspby" d="M347,526 C347,556,347,556,347,576" fill-opacity="0" marker-end="url(#supportedby_arrow)" stroke="black" stroke-width="1"/>
<path class="gsnedge gsninctxt" d="M1138,503 C1168,503,1148,503,1168,503" fill-opacity="0" marker-end="url(#incontextof_arrow)" stroke="black" stroke-width="1"/>
<path class="gsnedge gsninctxt" d="M1000,503 C970,503,990,503,970,503" fill-opacity="0" marker-end="url(#incontextof_arrow)" stroke="black" stroke-width="1"/>
<path class="gsnedge gsninspby" d="M1069,526 C1069,556,1069,556,1069,576" fill-opacity="0" marker-end="url(#supportedby_arrow)" stroke="black" stroke-width="1"/>
<g class="gsnmodule" id="node_gsn_module">
<title>Module Information</title>
<text font-family="Arial" font-size="12" x="1254" y="870">Module: claim-TS-2</text>
<text font-family="Arial" font-size="12" x="1254" y="884">Assurance Case Fragment for TS-2.</text>
<text font-family="Arial" font-size="12" x="1254" y="898">Generated on: 2024-10-11T17:38:17.998012000Z</text>
</g>
</svg>