<?xml version="1.0" encoding="UTF-8"?>
<svg class="gsndiagram" viewBox="0 0 1548 946" xmlns="http://www.w3.org/2000/svg">
<symbol id="module_icon">
<rect fill="lightgrey" height="5" stroke="black" stroke-width="1" width="10" x="0" y="0"/>
<rect fill="lightgrey" height="10" stroke="black" stroke-width="1" width="20" x="0" y="5"/>
</symbol>
<symbol id="acp">
<rect fill="black" height="10" stroke="black" stroke-width="1" width="10" x="0" y="0"/>
</symbol>
<marker id="composite_arrow" markerHeight="9" markerUnits="userSpaceOnUse" markerWidth="10" orient="auto-start-reverse" refX="0" refY="4.5">
<polyline fill-opacity="0" points="0 0, 6 4.5, 0 9" stroke="black" stroke-width="1"/>
<polyline fill-opacity="0" points="4 0, 10 4.5, 4 9" stroke="black" stroke-width="1"/>
<polyline fill-opacity="0" points="0 4.5, 10 4.5" stroke="black" stroke-width="1"/>
</marker>
<marker id="supportedby_arrow" markerHeight="9" markerUnits="userSpaceOnUse" markerWidth="10" orient="auto-start-reverse" refX="0" refY="4.5">
<polyline fill="black" points="0 0, 10 4.5, 0 9"/>
</marker>
<marker id="incontextof_arrow" markerHeight="9" markerUnits="userSpaceOnUse" markerWidth="10" orient="auto-start-reverse" refX="0" refY="4.5">
<polyline fill-opacity="0" points="0 0, 10 4.5, 0 9, 0 0" stroke="black" stroke-width="1"/>
</marker>
<style type="text/css">
.notVerified path { fill: red; fill-opacity: 1;}
/* .notVerified text,a { fill: white; } */
</style>
<a href="claim-UCA1.svg#node_g00039">
<g class="gsn_module_claim_uca1 gsnelem gsnawaygoal" id="node_g00039">
<title>G00039</title>
<path class="border" d="M513,114 V20 H903 V114" fill-opacity="0" stroke="black" stroke-width="1"/>
<text font-family="Arial" font-size="12" font-weight="bold" x="520" y="39">G00039</text>
<text font-family="Arial" font-size="12" x="520" y="58">Threat scenario is exploitable within </text>
<text font-family="Arial" font-size="12" x="520" y="72"> acceptable risk (Computed likelihood = 2.337671632895998e-05) </text>
<text font-family="Arial" font-size="12" x="520" y="86"> under the current system configuration </text>
<text font-family="Arial" font-size="12" x="520" y="100"> as per attack path analysis</text>
<a href="claim-UCA1.svg#node_g00039">
<path class="border" d="M513,114 h391 v28 h-391 z" fill-opacity="0" stroke="black" stroke-width="1"/>
<text font-family="Arial" font-size="12" font-weight="bold" x="547" y="135">claim-UCA1</text>
</a>
<use href="#module_icon" x="520" y="121"/>
</g>
</a>
<g class="gsn_module_claim_ts_1 gsnelem gsngoal" id="node_g00061">
<title>G00061</title>
<path class="border" d="M510,182 L906,182 L906,242 L510,242 z" fill-opacity="0" stroke="black" stroke-width="1"/>
<text font-family="Arial" font-size="12" font-weight="bold" x="517" y="201">G00061</text>
<text font-family="Arial" font-size="12" x="517" y="220">Risk of adversary being in the position of causing TS is acceptable </text>
<text font-family="Arial" font-size="12" x="517" y="234"> under the current system configuration</text>
</g>
<g class="gsn_module_claim_ts_1 gsnelem gsnjust" id="node_j00021">
<title>J00021</title>
<path class="border" d="M299,315 a151,33,0,1,0,303,0 a151,33,0,1,0,-303,0 z" fill-opacity="0" stroke="black" stroke-width="1"/>
<text font-family="Arial" font-size="12" font-weight="bold" x="349" y="306">J00021</text>
<text font-family="Arial" font-size="12" x="349" y="325">Acceptable risk threashold is 0.0001</text>
<text font-family="Arial" font-size="12" font-weight="bold" x="596" y="343">J</text>
</g>
<g class="gsn_module_claim_ts_1 gsnelem gsnstgy" id="node_s00043">
<title>S00043</title>
<path class="border" d="M648,292 L782,292 L768,338 L634,338 z" fill-opacity="0" stroke="black" stroke-width="1"/>
<text font-family="Arial" font-size="12" font-weight="bold" x="656" y="311">S00043</text>
<text font-family="Arial" font-size="12" x="652" y="330">Calculation</text>
</g>
<g class="gsn_module_claim_ts_1 gsnelem gsnasmp" id="node_a00023">
<title>A00023</title>
<path class="border" d="M815,315 a151,33,0,1,0,302,0 a151,33,0,1,0,-302,0 z" fill-opacity="0" stroke="black" stroke-width="1"/>
<text font-family="Arial" font-size="12" font-weight="bold" x="866" y="306">A00023</text>
<text font-family="Arial" font-size="12" x="866" y="325">Calc. strategy is Bayesian Inference</text>
<text font-family="Arial" font-size="12" font-weight="bold" x="1112" y="343">A</text>
</g>
<g class="gsn_module_claim_ts_1 gsnelem gsngoal" id="node_g00062">
<title>G00062</title>
<path class="border" d="M259,388 L435,388 L435,448 L259,448 z" fill-opacity="0" stroke="black" stroke-width="1"/>
<text font-family="Arial" font-size="12" font-weight="bold" x="266" y="407">G00062</text>
<text font-family="Arial" font-size="12" x="266" y="426">Disrupt (RTK Loc) likelihood </text>
<text font-family="Arial" font-size="12" x="266" y="440"> is 2.337671632895998e-05</text>
</g>
<g class="gsn_module_claim_ts_1 gsnelem gsngoal" id="node_g00063">
<title>G00063</title>
<path class="border" d="M980,388 L1158,388 L1158,448 L980,448 z" fill-opacity="0" stroke="black" stroke-width="1"/>
<text font-family="Arial" font-size="12" font-weight="bold" x="987" y="407">G00063</text>
<text font-family="Arial" font-size="12" x="987" y="426">Spoof (GNSS Loc) likelihood </text>
<text font-family="Arial" font-size="12" x="987" y="440"> is 0.6000173160861696</text>
</g>
<g class="gsn_module_claim_ts_1 gsnelem gsnctxt" id="node_c00015">
<title>C00015</title>
<path class="border" d="M30,508 L228,508 C238,508,238,554,228,554 L30,554 C20,554,20,508,30,508" fill-opacity="0" stroke="black" stroke-width="1"/>
<text font-family="Arial" font-size="12" font-weight="bold" x="37" y="527">C00015</text>
<text font-family="Arial" font-size="12" x="37" y="546">Security assessment carried out.</text>
</g>
<g class="gsn_module_claim_ts_1 gsnelem gsnstgy" id="node_s00044">
<title>S00044</title>
<path class="border" d="M285,508 L423,508 L409,554 L271,554 z" fill-opacity="0" stroke="black" stroke-width="1"/>
<text font-family="Arial" font-size="12" font-weight="bold" x="292" y="527">S00044</text>
<text font-family="Arial" font-size="12" x="288" y="546">Evidence Incorporation</text>
</g>
<g class="gsn_module_claim_ts_1 gsnelem gsnasmp" id="node_a00024">
<title>A00024</title>
<path class="border" d="M456,531 a123,43,0,1,0,247,0 a123,43,0,1,0,-247,0 z" fill-opacity="0" stroke="black" stroke-width="1"/>
<text font-family="Arial" font-size="12" font-weight="bold" x="498" y="515">A00024</text>
<text font-family="Arial" font-size="12" x="498" y="534">Computer network is known. </text>
<text font-family="Arial" font-size="12" x="498" y="548"> No 0-days vulnerabilities.</text>
<text font-family="Arial" font-size="12" font-weight="bold" x="697" y="569">A</text>
</g>
<g class="gsn_module_claim_ts_1 gsnelem gsnctxt" id="node_c00016">
<title>C00016</title>
<path class="border" d="M752,508 L950,508 C960,508,960,554,950,554 L752,554 C742,554,742,508,752,508" fill-opacity="0" stroke="black" stroke-width="1"/>
<text font-family="Arial" font-size="12" font-weight="bold" x="759" y="527">C00016</text>
<text font-family="Arial" font-size="12" x="759" y="546">Security assessment carried out.</text>
</g>
<g class="gsn_module_claim_ts_1 gsnelem gsnstgy" id="node_s00045">
<title>S00045</title>
<path class="border" d="M1007,508 L1145,508 L1131,554 L993,554 z" fill-opacity="0" stroke="black" stroke-width="1"/>
<text font-family="Arial" font-size="12" font-weight="bold" x="1014" y="527">S00045</text>
<text font-family="Arial" font-size="12" x="1010" y="546">Evidence Incorporation</text>
</g>
<g class="gsn_module_claim_ts_1 gsnelem gsnasmp" id="node_a00025">
<title>A00025</title>
<path class="border" d="M1178,531 a123,43,0,1,0,247,0 a123,43,0,1,0,-247,0 z" fill-opacity="0" stroke="black" stroke-width="1"/>
<text font-family="Arial" font-size="12" font-weight="bold" x="1220" y="515">A00025</text>
<text font-family="Arial" font-size="12" x="1220" y="534">Computer network is known. </text>
<text font-family="Arial" font-size="12" x="1220" y="548"> No 0-days vulnerabilities.</text>
<text font-family="Arial" font-size="12" font-weight="bold" x="1419" y="569">A</text>
</g>
<g class="gsn_module_claim_ts_1 gsnelem gsnsltn" id="node_sn00012">
<title>Sn00012</title>
<path class="border" d="M234,727 a113,113,0,1,0,226,0 a113,113,0,1,0,-226,0 z" fill-opacity="0" stroke="black" stroke-width="1"/>
<text font-family="Arial" font-size="12" font-weight="bold" x="249" y="718">Sn00012</text>
<text font-family="Arial" font-size="12" x="249" y="737">Attack Path Analysis (/path/to/ag). </text>
</g>
<g class="gsn_module_claim_ts_1 gsnelem gsnsltn" id="node_sn00013">
<title>Sn00013</title>
<path class="border" d="M956,727 a113,113,0,1,0,226,0 a113,113,0,1,0,-226,0 z" fill-opacity="0" stroke="black" stroke-width="1"/>
<text font-family="Arial" font-size="12" font-weight="bold" x="971" y="718">Sn00013</text>
<text font-family="Arial" font-size="12" x="971" y="737">Attack Path Analysis (/path/to/ag). </text>
</g>
<path class="gsnedge gsninspby" d="M708,142 C708,172,708,152,708,172" fill-opacity="0" marker-end="url(#supportedby_arrow)" stroke="black" stroke-width="1"/>
<path class="gsnedge gsninspby" d="M708,242 C708,272,708,262,708,282" fill-opacity="0" marker-end="url(#supportedby_arrow)" stroke="black" stroke-width="1"/>
<path class="gsnedge gsninspby" d="M347,448 C347,478,347,478,347,498" fill-opacity="0" marker-end="url(#supportedby_arrow)" stroke="black" stroke-width="1"/>
<path class="gsnedge gsninspby" d="M1069,448 C1069,478,1069,478,1069,498" fill-opacity="0" marker-end="url(#supportedby_arrow)" stroke="black" stroke-width="1"/>
<path class="gsnedge gsninctxt" d="M775,315 C805,315,785,315,805,315" fill-opacity="0" marker-end="url(#incontextof_arrow)" stroke="black" stroke-width="1"/>
<path class="gsnedge gsninctxt" d="M641,315 C611,315,631,315,611,315" fill-opacity="0" marker-end="url(#incontextof_arrow)" stroke="black" stroke-width="1"/>
<path class="gsnedge gsninspby" d="M708,338 C708,368,347,358,347,378" fill-opacity="0" marker-end="url(#supportedby_arrow)" stroke="black" stroke-width="1"/>
<path class="gsnedge gsninspby" d="M708,338 C708,368,1069,358,1069,378" fill-opacity="0" marker-end="url(#supportedby_arrow)" stroke="black" stroke-width="1"/>
<path class="gsnedge gsninctxt" d="M416,531 C446,531,426,531,446,531" fill-opacity="0" marker-end="url(#incontextof_arrow)" stroke="black" stroke-width="1"/>
<path class="gsnedge gsninctxt" d="M278,531 C248,531,268,531,248,531" fill-opacity="0" marker-end="url(#incontextof_arrow)" stroke="black" stroke-width="1"/>
<path class="gsnedge gsninspby" d="M347,554 C347,584,347,584,347,604" fill-opacity="0" marker-end="url(#supportedby_arrow)" stroke="black" stroke-width="1"/>
<path class="gsnedge gsninctxt" d="M1138,531 C1168,531,1148,531,1168,531" fill-opacity="0" marker-end="url(#incontextof_arrow)" stroke="black" stroke-width="1"/>
<path class="gsnedge gsninctxt" d="M1000,531 C970,531,990,531,970,531" fill-opacity="0" marker-end="url(#incontextof_arrow)" stroke="black" stroke-width="1"/>
<path class="gsnedge gsninspby" d="M1069,554 C1069,584,1069,584,1069,604" fill-opacity="0" marker-end="url(#supportedby_arrow)" stroke="black" stroke-width="1"/>
<g class="gsnmodule" id="node_gsn_module">
<title>Module Information</title>
<text font-family="Arial" font-size="12" x="1253" y="898">Module: claim-TS-1</text>
<text font-family="Arial" font-size="12" x="1253" y="912">Assurance Case Fragment for TS-1.</text>
<text font-family="Arial" font-size="12" x="1253" y="926">Generated on: 2024-10-31T13:04:20.605284000Z</text>
</g>
</svg>